<?xml version="1.0" encoding="utf-8"?>
<!-- Generator: Adobe Illustrator 20.0.0, SVG Export Plug-In . SVG Version: 6.00 Build 0)  -->
<svg version="1.1" id="logo.svg" xmlns="http://www.w3.org/2000/svg" xmlns:xlink="http://www.w3.org/1999/xlink" x="0px" y="0px"
	 viewBox="0 0 60 28" style="enable-background:new 0 0 60 28;" xml:space="preserve">
<style type="text/css">
	.st0{fill:#FFFFFF;}
	.st1{opacity:0.4;fill:#FFFFFF;enable-background:new    ;}
	.st2{fill:none;enable-background:new    ;}
</style>
<path id="Shape_32_copy_copie_copy" class="st0" d="M32.8,20.4C31.9,21.3,29.5,22,28,22c-4.3-0.1-7.7-3.7-7.6-8s3.7-7.7,8-7.6
	C32.6,6.5,36,10,36,14.2c0,1.5-0.5,3-1.3,4.2c0,0-0.8,0.9-1.3,1.4C33.3,20.1,33,20.3,32.8,20.4z M28,7.9c-3.5,0.1-6.3,3-6.2,6.5
	s3,6.3,6.5,6.2c3.4-0.1,6.2-2.9,6.2-6.3C34.4,10.7,31.5,7.9,28,7.9L28,7.9z"/>
<path id="Ellipse_26_copy_9" class="st1" d="M28.4,19.1c-1.4-0.1-2.7-0.5-3.8-1.3c-0.3-0.4-0.5-0.8-0.6-1.3c0.6-0.1,1.1-0.2,1.6-0.4
	c1-0.4,1.3-0.5,1.3-0.5L27,15c-0.3-0.3-0.6-0.8-0.6-1.2c-0.2,0.1-0.3-0.3-0.3-0.5c0-0.2-0.1-0.8,0.1-0.8c-0.1-0.2-0.1-0.5-0.1-0.7
	c0.2-0.9,0.9-1.6,1.8-1.6c0.9,0,1.7,0.7,1.8,1.6c0,0.2,0,0.5-0.1,0.7c0.3-0.1,0.2,0.6,0.1,0.8c0,0.2-0.1,0.5-0.3,0.5
	c0,0.5-0.3,0.9-0.6,1.2l0.1,0.5c0.4,0.2,0.8,0.4,1.3,0.6c0.5,0.2,1,0.4,1.5,0.5l0.4,0C31.6,18.1,30.1,19.1,28.4,19.1z"/>
<path id="people_copy_4" class="st0" d="M4.7,17.8C7,17.8,8.9,16,9,13.7c0-0.1,0-0.2,0-0.3c0-2.5-2.1-4.6-4.6-4.5
	c-1.2,0-0.7-0.1-2.1,0H0.6v12.1h1.6v-3.2C2.9,17.8,3.5,17.8,4.7,17.8z M4.3,16.2H2.2v-5.8h2.1c1.7,0,3.2,1.1,3.2,3
	S6.1,16.2,4.3,16.2z M14.6,17.8c1.4,0,3.9,0,3.9,0v-1.6h-3.7c-1.5,0-3-0.5-3.2-2.1h6.8v-1.1c0-1-0.4-2-1.1-2.7
	c-0.8-1-1.9-1.5-3.1-1.5c-3.1,0-4.2,2.1-4.2,4.5c-0.1,2.3,1.7,4.3,4,4.4C14.3,17.8,14.4,17.8,14.6,17.8z M16.9,12.5h-5.3
	c0.1-1.3,0.8-2.1,2.6-2.1C16.3,10.4,16.9,11.3,16.9,12.5z M49.1,17.8c0.8,0,1.2,0,2.1,0v-1.6c-0.5,0-1.2,0-1.6,0
	c-0.6,0-1.1-0.9-1.1-1.6V5.2h-1.6v10.5c-0.1,1.1,0.8,2,1.8,2.1C48.9,17.8,49,17.8,49.1,17.8z M41.5,17.8c2.3,0.1,4.2-1.8,4.3-4.1
	c0-0.1,0-0.2,0-0.3c0-2.5-2.1-4.6-4.6-4.5c-1.2,0-0.7-0.1-2.1,0h-1.6v12.1h1.6v-3.2C39.8,17.8,40.3,17.8,41.5,17.8z M41.2,16.2h-2.1
	v-5.8h2.1c1.7,0,3.2,1.1,3.2,3S42.9,16.2,41.2,16.2z M56.1,17.8c1.4,0,3.9,0,3.9,0v-1.6h-3.7c-1.5,0-3.1-0.5-3.2-2.1H60v-1.1
	c0-1-0.4-2-1.1-2.7c-0.8-1-1.9-1.5-3.1-1.5c-3,0-4.2,2.1-4.2,4.5c-0.1,2.3,1.7,4.3,4,4.4C55.7,17.8,55.9,17.8,56.1,17.8z M58.4,12.5
	h-5.3c0.1-1.3,0.8-2.1,2.6-2.1C57.8,10.4,58.4,11.3,58.4,12.5z"/>
<path class="st2" d="z"/>
</svg>
